<svg id="svg" version="1.1" xmlns="http://www.w3.org/2000/svg" xmlns:xlink="http://www.w3.org/1999/xlink" width="400" height="400" viewBox="0, 0, 400,400"><g id="svgg"><path id="path0" d="M98.000 107.198 L 98.000 132.396 133.100 132.498 L 168.200 132.600 168.301 221.700 L 168.402 310.800 200.200 310.800 L 231.998 310.800 232.099 221.700 L 232.200 132.600 267.300 132.498 L 302.400 132.396 302.400 107.198 L 302.400 82.000 200.200 82.000 L 98.000 82.000 98.000 107.198 " stroke="none" fill="#5cc434" fill-rule="evenodd"></path><path id="path1" d="M96.984 82.099 C 96.879 82.375,96.839 93.850,96.896 107.600 L 97.000 132.600 132.000 132.700 C 164.341 132.792,167.038 132.851,167.500 133.476 C 167.896 134.013,168.000 152.486,168.000 222.679 L 168.000 311.205 200.300 311.102 L 232.600 311.000 232.701 221.902 L 232.802 132.804 267.901 132.702 L 303.000 132.600 303.000 107.200 L 303.000 81.800 200.088 81.699 C 117.968 81.619,97.137 81.700,96.984 82.099 M302.400 107.198 L 302.400 132.396 267.300 132.498 L 232.200 132.600 232.099 221.700 L 231.998 310.800 200.200 310.800 L 168.402 310.800 168.301 221.700 L 168.200 132.600 133.100 132.498 L 98.000 132.396 98.000 107.198 L 98.000 82.000 200.200 82.000 L 302.400 82.000 302.400 107.198 " stroke="none" fill="#54b42c" fill-rule="evenodd"></path><path id="path2" d="M0.000 200.000 L 0.000 400.000 200.000 400.000 L 400.000 400.000 400.000 200.000 L 400.000 0.000 200.000 0.000 L 0.000 0.000 0.000 200.000 M303.357 81.433 C 303.674 82.259,303.674 132.141,303.357 132.967 C 303.138 133.538,299.665 133.600,268.157 133.600 L 233.200 133.600 233.200 222.167 C 233.200 270.879,233.091 311.019,232.957 311.367 C 232.691 312.061,168.783 312.358,167.701 311.671 C 167.305 311.419,167.181 292.990,167.101 222.577 L 167.000 133.800 132.238 133.698 C 107.364 133.625,97.324 133.468,96.938 133.149 C 96.192 132.529,96.135 82.025,96.880 81.280 C 97.715 80.445,303.037 80.597,303.357 81.433 " stroke="none" fill="#242424" fill-rule="evenodd"></path><path id="path3" d="M96.800 81.500 C 96.800 81.665,143.240 81.800,200.000 81.800 C 256.760 81.800,303.200 81.665,303.200 81.500 C 303.200 81.335,256.760 81.200,200.000 81.200 C 143.240 81.200,96.800 81.335,96.800 81.500 M96.800 132.898 C 96.800 133.062,112.595 133.242,131.900 133.298 L 167.000 133.400 167.200 222.400 L 167.400 311.400 200.100 311.502 C 218.085 311.559,232.800 311.469,232.800 311.302 C 232.800 311.136,218.220 311.047,200.400 311.105 L 168.000 311.209 168.000 222.681 C 168.000 152.485,167.896 134.013,167.500 133.478 C 166.969 132.761,96.800 132.185,96.800 132.898 M267.900 132.700 C 234.806 132.798,232.802 132.844,232.832 133.502 C 232.850 133.920,232.944 134.000,233.065 133.700 C 233.224 133.305,240.634 133.200,268.233 133.200 C 291.278 133.200,303.200 133.064,303.200 132.800 C 303.200 132.580,303.155 132.444,303.100 132.498 C 303.045 132.552,287.205 132.643,267.900 132.700 " stroke="none" fill="#344c24" fill-rule="evenodd"></path><path id="path4" d="M148.468 81.100 C 176.775 81.157,223.215 81.157,251.668 81.100 C 280.121 81.043,256.960 80.997,200.200 80.997 C 143.440 80.997,120.161 81.043,148.468 81.100 M96.589 107.200 C 96.589 121.390,96.639 127.195,96.700 120.100 C 96.761 113.005,96.761 101.395,96.700 94.300 C 96.639 87.205,96.589 93.010,96.589 107.200 M303.389 107.200 C 303.389 121.390,303.439 127.195,303.500 120.100 C 303.561 113.005,303.561 101.395,303.500 94.300 C 303.439 87.205,303.389 93.010,303.389 107.200 M109.600 133.494 C 142.588 133.769,167.106 133.772,166.938 133.500 C 166.836 133.335,151.058 133.242,131.876 133.294 C 112.694 133.346,102.670 133.436,109.600 133.494 M250.730 133.500 C 260.482 133.560,276.322 133.560,285.930 133.500 C 295.539 133.440,287.560 133.391,268.200 133.391 C 248.840 133.391,240.979 133.440,250.730 133.500 M232.996 222.600 C 232.996 271.440,233.043 291.361,233.100 266.868 C 233.157 242.375,233.157 202.415,233.100 178.068 C 233.043 153.721,232.996 173.760,232.996 222.600 M184.100 311.900 C 193.065 311.960,207.735 311.960,216.700 311.900 C 225.665 311.840,218.330 311.791,200.400 311.791 C 182.470 311.791,175.135 311.840,184.100 311.900 " stroke="none" fill="#2c4424" fill-rule="evenodd"></path></g></svg>