<svg id="svg" version="1.1" xmlns="http://www.w3.org/2000/svg" xmlns:xlink="http://www.w3.org/1999/xlink" width="400" height="400" viewBox="0, 0, 400,400"><g id="svgg"><path id="path0" d="M160.400 152.200 L 160.400 161.600 173.386 161.600 C 185.815 161.600,186.390 161.633,186.786 162.374 C 187.062 162.889,187.200 174.173,187.200 196.174 L 187.200 229.200 199.000 229.200 L 210.800 229.200 210.806 195.900 C 210.809 177.585,210.954 162.378,211.126 162.106 C 211.363 161.733,214.647 161.585,224.420 161.506 L 237.400 161.400 237.513 153.000 C 237.575 148.380,237.527 144.195,237.406 143.700 L 237.185 142.800 198.792 142.800 L 160.400 142.800 160.400 152.200 " stroke="none" fill="#5bc334" fill-rule="evenodd"></path><path id="path1" d="M0.000 200.000 L 0.000 400.000 200.000 400.000 L 400.000 400.000 400.000 200.000 L 400.000 0.000 200.000 0.000 L 0.000 0.000 0.000 200.000 M237.767 142.243 C 238.843 142.655,238.709 161.807,237.626 162.386 C 237.140 162.646,232.166 162.800,224.229 162.800 L 211.605 162.800 211.502 196.300 L 211.400 229.800 198.800 229.800 L 186.200 229.800 186.098 196.300 L 185.995 162.800 173.430 162.800 C 166.520 162.800,160.581 162.691,160.233 162.557 C 159.574 162.304,159.224 142.910,159.867 142.267 C 160.200 141.934,236.900 141.910,237.767 142.243 " stroke="none" fill="#24242c" fill-rule="evenodd"></path><path id="path2" d="M160.093 152.300 L 160.200 162.200 173.298 162.305 L 186.395 162.411 186.498 195.905 L 186.600 229.400 198.900 229.506 L 211.200 229.612 211.200 196.006 L 211.200 162.400 224.186 162.400 C 236.615 162.400,237.190 162.367,237.586 161.626 C 238.029 160.799,238.182 144.141,237.757 143.033 C 237.538 142.462,233.729 142.400,198.750 142.400 L 159.986 142.400 160.093 152.300 M237.406 143.700 C 237.527 144.195,237.575 148.380,237.513 153.000 L 237.400 161.400 224.420 161.506 C 214.647 161.585,211.363 161.733,211.126 162.106 C 210.954 162.378,210.809 177.585,210.806 195.900 L 210.800 229.200 199.000 229.200 L 187.200 229.200 187.200 196.174 C 187.200 174.173,187.062 162.889,186.786 162.374 C 186.390 161.633,185.815 161.600,173.386 161.600 L 160.400 161.600 160.400 152.200 L 160.400 142.800 198.792 142.800 L 237.185 142.800 237.406 143.700 " stroke="none" fill="#4c8c2c" fill-rule="evenodd"></path><path id="path3" d="M159.867 142.267 C 159.224 142.910,159.574 162.304,160.233 162.557 C 160.581 162.691,166.520 162.800,173.430 162.800 L 185.995 162.800 186.098 196.300 L 186.200 229.800 198.800 229.800 L 211.400 229.800 211.502 196.300 L 211.605 162.800 224.229 162.800 C 232.166 162.800,237.140 162.646,237.626 162.386 C 238.709 161.807,238.843 142.655,237.767 142.243 C 236.900 141.910,160.200 141.934,159.867 142.267 M237.757 143.033 C 238.182 144.141,238.029 160.799,237.586 161.626 C 237.190 162.367,236.615 162.400,224.186 162.400 L 211.200 162.400 211.200 196.006 L 211.200 229.612 198.900 229.506 L 186.600 229.400 186.498 195.905 L 186.395 162.411 173.298 162.305 L 160.200 162.200 160.093 152.300 L 159.986 142.400 198.750 142.400 C 233.729 142.400,237.538 142.462,237.757 143.033 " stroke="none" fill="#405030" fill-rule="evenodd"></path><path id="path4" d="" stroke="none" fill="#442430" fill-rule="evenodd"></path></g></svg>